<svg width="64" height="64" viewBox="0 0 64 64" fill="none" xmlns="http://www.w3.org/2000/svg">
<rect width="64" height="64" rx="16" fill="#1A1A1A"/>
<path fill-rule="evenodd" clip-rule="evenodd" d="M20.6186 20.6191C18.666 22.5717 18.666 25.7144 18.666 31.9998C18.666 38.2852 18.666 41.4279 20.6186 43.3805C22.5713 45.3332 25.714 45.3332 31.9993 45.3332C38.2847 45.3332 41.4274 45.3332 43.3801 43.3805C45.3327 41.4279 45.3327 38.2852 45.3327 31.9998C45.3327 25.7144 45.3327 22.5717 43.3801 20.6191C41.4274 18.6665 38.2847 18.6665 31.9993 18.6665C25.714 18.6665 22.5713 18.6665 20.6186 20.6191ZM33.9834 24.5944C34.5169 24.7373 34.8335 25.2857 34.6905 25.8191L31.2396 38.6981C31.0967 39.2316 30.5483 39.5482 30.0149 39.4052C29.4814 39.2623 29.1648 38.714 29.3078 38.1805L32.7587 25.3015C32.9016 24.768 33.45 24.4514 33.9834 24.5944ZM35.9589 27.2927C36.3494 26.9022 36.9826 26.9022 37.3731 27.2927L37.6509 27.5705C38.498 28.4176 39.2044 29.1239 39.6898 29.7601C40.2021 30.4316 40.5614 31.141 40.5614 31.9998C40.5614 32.8587 40.2021 33.5681 39.6898 34.2396C39.2044 34.8757 38.4981 35.5821 37.651 36.4291L37.3731 36.7069C36.9826 37.0975 36.3494 37.0975 35.9589 36.7069C35.5684 36.3164 35.5684 35.6833 35.9589 35.2927L36.1877 35.064C37.0965 34.1551 37.7056 33.5431 38.0998 33.0264C38.4763 32.5329 38.5614 32.2456 38.5614 31.9998C38.5614 31.7541 38.4763 31.4668 38.0998 30.9733C37.7056 30.4566 37.0965 29.8446 36.1877 28.9357L35.9589 28.7069C35.5684 28.3164 35.5684 27.6833 35.9589 27.2927ZM26.6258 27.2927C27.0163 26.9022 27.6495 26.9022 28.04 27.2927C28.4306 27.6833 28.4306 28.3164 28.04 28.7069L27.8113 28.9357C26.9024 29.8446 26.2934 30.4566 25.8992 30.9733C25.5226 31.4668 25.4375 31.7541 25.4375 31.9998C25.4375 32.2456 25.5226 32.5329 25.8992 33.0264C26.2934 33.5431 26.9024 34.1551 27.8113 35.064L28.04 35.2927C28.4306 35.6833 28.4306 36.3164 28.04 36.7069C27.6495 37.0975 27.0163 37.0975 26.6258 36.7069L26.348 36.4292C25.5009 35.5821 24.7945 34.8757 24.3091 34.2396C23.7968 33.5681 23.4375 32.8587 23.4375 31.9998C23.4375 31.141 23.7968 30.4316 24.3091 29.7601C24.7945 29.1239 25.5009 28.4176 26.348 27.5705L26.6258 27.2927Z" fill="#474747"/>
</svg>
