<svg width="64" height="64" viewBox="0 0 64 64" fill="none" xmlns="http://www.w3.org/2000/svg">
<rect width="64" height="64" rx="16" fill="#1A1A1A"/>
<path d="M21.0379 20.873C20.7965 21.3541 20.6778 21.9477 20.4403 23.1349L19.6431 27.1211C19.1383 29.645 21.0688 31.9998 23.6427 31.9998C25.7382 31.9998 27.4928 30.412 27.7013 28.3269L27.7933 27.4067C27.5759 29.8716 29.5187 31.9998 32.0004 31.9998C34.4989 31.9998 36.4513 29.8425 36.2027 27.3563L36.3 28.3269C36.5085 30.412 38.2631 31.9998 40.3587 31.9998C42.9325 31.9998 44.8631 29.645 44.3583 27.1211L43.5611 23.1349C43.3236 21.9478 43.2048 21.3541 42.9635 20.873C42.4548 19.859 41.5396 19.1087 40.4456 18.8088C39.9264 18.6665 39.3211 18.6665 38.1104 18.6665H35.3337H25.8909C24.6802 18.6665 24.0749 18.6665 23.5557 18.8088C22.4617 19.1087 21.5465 19.859 21.0379 20.873Z" fill="#474747"/>
<path d="M40.3573 34C41.4468 34 42.4591 33.7168 43.3327 33.2252V34.6667C43.3327 39.695 43.3327 42.2091 41.7705 43.7712C40.5131 45.0287 38.6388 45.2739 35.3327 45.3218V40.6667C35.3327 39.4206 35.3327 38.7975 35.0647 38.3334C34.8892 38.0294 34.6367 37.7768 34.3327 37.6014C33.8685 37.3334 33.2455 37.3334 31.9993 37.3334C30.7532 37.3334 30.1301 37.3334 29.666 37.6014C29.362 37.7768 29.1095 38.0294 28.934 38.3334C28.666 38.7975 28.666 39.4206 28.666 40.6667V45.3218C25.3599 45.2739 23.4856 45.0287 22.2281 43.7712C20.666 42.2091 20.666 39.695 20.666 34.6667V33.2252C21.5397 33.7168 22.5519 34 23.6414 34C25.2375 34 26.7009 33.3819 27.7918 32.3626C28.8949 33.3762 30.368 34 31.9991 34C33.6303 34 35.1035 33.376 36.2067 32.3623C37.2976 33.3818 38.7611 34 40.3573 34Z" fill="#474747"/>
</svg>
