<svg width="42" height="41" viewBox="0 0 42 41" fill="none" xmlns="http://www.w3.org/2000/svg">
<rect width="42" height="40.0599" rx="20.0299" fill="#D0D0D0" fill-opacity="0.1"/>
<path d="M28.959 20.5205C28.959 20.0205 28.8965 19.6455 28.834 19.2393H21.459V21.8955H25.834C25.6777 23.0518 24.5215 25.2393 21.459 25.2393C18.8027 25.2393 16.6465 23.0518 16.6465 20.333C16.6465 15.9893 21.7715 13.9893 24.5215 16.6455L26.6465 14.6143C25.3027 13.3643 23.5215 12.583 21.459 12.583C17.1465 12.583 13.709 16.0518 13.709 20.333C13.709 24.6455 17.1465 28.083 21.459 28.083C25.9277 28.083 28.959 24.958 28.959 20.5205Z" fill="white"/>
</svg>
