<svg width="40" height="41" viewBox="0 0 40 41" fill="none" xmlns="http://www.w3.org/2000/svg">
<rect width="40" height="40.0599" rx="20" fill="#D0D0D0" fill-opacity="0.1"/>
<path d="M20.334 16.7393C18.334 16.7393 16.7402 18.3643 16.7402 20.333C16.7402 22.333 18.334 23.9268 20.334 23.9268C22.3027 23.9268 23.9277 22.333 23.9277 20.333C23.9277 18.3643 22.3027 16.7393 20.334 16.7393ZM20.334 22.6768C19.0527 22.6768 17.9902 21.6455 17.9902 20.333C17.9902 19.0518 19.0215 18.0205 20.334 18.0205C21.6152 18.0205 22.6465 19.0518 22.6465 20.333C22.6465 21.6455 21.6152 22.6768 20.334 22.6768ZM24.8965 16.6143C24.8965 16.1455 24.5215 15.7705 24.0527 15.7705C23.584 15.7705 23.209 16.1455 23.209 16.6143C23.209 17.083 23.584 17.458 24.0527 17.458C24.5215 17.458 24.8965 17.083 24.8965 16.6143ZM27.2715 17.458C27.209 16.333 26.959 15.333 26.1465 14.5205C25.334 13.708 24.334 13.458 23.209 13.3955C22.0527 13.333 18.584 13.333 17.4277 13.3955C16.3027 13.458 15.334 13.708 14.4902 14.5205C13.6777 15.333 13.4277 16.333 13.3652 17.458C13.3027 18.6143 13.3027 22.083 13.3652 23.2393C13.4277 24.3643 13.6777 25.333 14.4902 26.1768C15.334 26.9893 16.3027 27.2393 17.4277 27.3018C18.584 27.3643 22.0527 27.3643 23.209 27.3018C24.334 27.2393 25.334 26.9893 26.1465 26.1768C26.959 25.333 27.209 24.3643 27.2715 23.2393C27.334 22.083 27.334 18.6143 27.2715 17.458ZM25.7715 24.458C25.5527 25.083 25.0527 25.5518 24.459 25.8018C23.5215 26.1768 21.334 26.083 20.334 26.083C19.3027 26.083 17.1152 26.1768 16.209 25.8018C15.584 25.5518 15.1152 25.083 14.8652 24.458C14.4902 23.5518 14.584 21.3643 14.584 20.333C14.584 19.333 14.4902 17.1455 14.8652 16.208C15.1152 15.6143 15.584 15.1455 16.209 14.8955C17.1152 14.5205 19.3027 14.6143 20.334 14.6143C21.334 14.6143 23.5215 14.5205 24.459 14.8955C25.0527 15.1143 25.5215 15.6143 25.7715 16.208C26.1465 17.1455 26.0527 19.333 26.0527 20.333C26.0527 21.3643 26.1465 23.5518 25.7715 24.458Z" fill="white"/>
</svg>
