<svg width="64" height="64" viewBox="0 0 64 64" fill="none" xmlns="http://www.w3.org/2000/svg">
<rect width="64" height="64" rx="16" fill="#1A1A1A"/>
<path d="M22.6673 19.3335H41.334C43.5431 19.3335 45.334 21.1244 45.334 23.3335V36.6668C45.334 38.876 43.5431 40.6668 41.334 40.6668H22.6673C20.4582 40.6668 18.6673 38.876 18.6673 36.6668V23.3335C18.6673 21.1244 20.4582 19.3335 22.6673 19.3335Z" fill="#474747"/>
<path d="M18.6673 43.3335C17.9309 43.3335 17.334 43.9304 17.334 44.6668C17.334 45.4032 17.9309 46.0002 18.6673 46.0002H45.334C46.0704 46.0002 46.6673 45.4032 46.6673 44.6668C46.6673 43.9304 46.0704 43.3335 45.334 43.3335H18.6673Z" fill="#474747"/>
</svg>
