<svg width="42" height="41" viewBox="0 0 42 41" fill="none" xmlns="http://www.w3.org/2000/svg">
<rect width="42" height="40.0599" rx="20.0299" fill="#D0D0D0" fill-opacity="0.1"/>
<path d="M27.6777 17.083C28.3027 16.6143 28.8652 16.0518 29.3027 15.3955C28.7402 15.6455 28.084 15.833 27.4277 15.8955C28.1152 15.4893 28.6152 14.8643 28.8652 14.083C28.2402 14.458 27.5215 14.7393 26.8027 14.8955C26.1777 14.2393 25.334 13.8643 24.3965 13.8643C22.584 13.8643 21.1152 15.333 21.1152 17.1455C21.1152 17.3955 21.1465 17.6455 21.209 17.8955C18.4902 17.7393 16.0527 16.4268 14.4277 14.458C14.1465 14.9268 13.9902 15.4893 13.9902 16.1143C13.9902 17.2393 14.5527 18.2393 15.459 18.833C14.9277 18.8018 14.3965 18.6768 13.959 18.4268V18.458C13.959 20.0518 15.084 21.3643 16.584 21.6768C16.334 21.7393 16.0215 21.8018 15.7402 21.8018C15.5215 21.8018 15.334 21.7705 15.1152 21.7393C15.5215 23.0518 16.7402 23.9893 18.1777 24.0205C17.0527 24.8955 15.6465 25.4268 14.1152 25.4268C13.834 25.4268 13.584 25.3955 13.334 25.3643C14.7715 26.3018 16.4902 26.833 18.3652 26.833C24.3965 26.833 27.6777 21.8643 27.6777 17.5205C27.6777 17.3643 27.6777 17.2393 27.6777 17.083Z" fill="white"/>
</svg>
